HIERARCHY
ROOT Hips
{
  OFFSET 5.84602e-005 68.8428 3.50346
  CHANNELS 6 Xposition Yposition Zposition Zrotation Xrotation Yrotation
  JOINT Spine
  {
    OFFSET 0 8.597 -4.6522
    CHANNELS 3 Zrotation Xrotation Yrotation
    JOINT Spine1
    {
      OFFSET 0 7.8454 0.4098
      CHANNELS 3 Zrotation Xrotation Yrotation
      JOINT Spine2
      {
        OFFSET 0 9.7078 -2.1609
        CHANNELS 3 Zrotation Xrotation Yrotation
        JOINT Neck
        {
          OFFSET 0 21.8761 -0.4549
          CHANNELS 3 Zrotation Xrotation Yrotation
          JOINT Head
          {
            OFFSET 0 12.3537 3.3602
            CHANNELS 3 Zrotation Xrotation Yrotation
            End Site
            {
              OFFSET 0.0001 18.9506 0.5657
            }
          }
        }
        JOINT LeftShoulder
        {
          OFFSET 2.2086 21.1115 7.2329
          CHANNELS 3 Zrotation Xrotation Yrotation
          JOINT LeftArm
          {
            OFFSET 13.1193 3.0282 -4.8998
            CHANNELS 3 Zrotation Xrotation Yrotation
            JOINT LeftForeArm
            {
              OFFSET 27.4081 -0.0973053 -0.2375
              CHANNELS 3 Zrotation Xrotation Yrotation
              JOINT LeftHand
              {
                OFFSET 22.8641 0.0662994 -0.1369
                CHANNELS 3 Zrotation Xrotation Yrotation
                JOINT LeftHandIndex1
                {
                  OFFSET 8.8614 0.775009 2.4612
                  CHANNELS 3 Zrotation Xrotation Yrotation
                  JOINT LeftHandIndex2
                  {
                    OFFSET 3.3146 -0.808304 0.5841
                    CHANNELS 3 Zrotation Xrotation Yrotation
                    JOINT LeftHandIndex3
                    {
                      OFFSET 2.2628 -0.552002 0.3989
                      CHANNELS 3 Zrotation Xrotation Yrotation
                      End Site
                      {
                        OFFSET 1.6102 -0.4807 0.2612
                      }
                    }
                  }
                }
                JOINT LeftHandMiddle1
                {
                  OFFSET 8.9937 0.895004 0.2143
                  CHANNELS 3 Zrotation Xrotation Yrotation
                  JOINT LeftHandMiddle2
                  {
                    OFFSET 4.0984 0.0113983 -0.0242
                    CHANNELS 3 Zrotation Xrotation Yrotation
                    JOINT LeftHandMiddle3
                    {
                      OFFSET 2.2716 0.00689697 -0.0138001
                      CHANNELS 3 Zrotation Xrotation Yrotation
                      End Site
                      {
                        OFFSET 2.0404 -0.1441 0.0027
                      }
                    }
                  }
                }
                JOINT LeftHandRing1
                {
                  OFFSET 8.5234 0.597198 -2.0164
                  CHANNELS 3 Zrotation Xrotation Yrotation
                  JOINT LeftHandRing2
                  {
                    OFFSET 3.7188 -0.188293 -0.2328
                    CHANNELS 3 Zrotation Xrotation Yrotation
                    JOINT LeftHandRing3
                    {
                      OFFSET 2.1191 -0.106598 -0.1332
                      CHANNELS 3 Zrotation Xrotation Yrotation
                      End Site
                      {
                        OFFSET 1.8737 -0.2304 -0.0886
                      }
                    }
                  }
                }
                JOINT LeftHandPinky1
                {
                  OFFSET 7.9094 -0.601089 -3.4825
                  CHANNELS 3 Zrotation Xrotation Yrotation
                  JOINT LeftHandPinky2
                  {
                    OFFSET 2.2874 -0.477005 -0.6314
                    CHANNELS 3 Zrotation Xrotation Yrotation
                    JOINT LeftHandPinky3
                    {
                      OFFSET 1.6774 -0.349396 -0.4633
                      CHANNELS 3 Zrotation Xrotation Yrotation
                      End Site
                      {
                        OFFSET 1.4888 -0.4091 -0.3416
                      }
                    }
                  }
                }
                JOINT LeftHandThumb1
                {
                  OFFSET 1.833 -1.3875 1.3896
                  CHANNELS 3 Zrotation Xrotation Yrotation
                  JOINT LeftHandThumb2
                  {
                    OFFSET 3.4129 -1.121 2.5732
                    CHANNELS 3 Zrotation Xrotation Yrotation
                    JOINT LeftHandThumb3
                    {
                      OFFSET 2.2474 -0.804199 1.6192
                      CHANNELS 3 Zrotation Xrotation Yrotation
                      End Site
                      {
                        OFFSET 1.6527 -0.5689 1.1317
                      }
                    }
                  }
                }
              }
            }
          }
        }
        JOINT RightShoulder
        {
          OFFSET -2.2086 21.1115 7.2329
          CHANNELS 3 Zrotation Xrotation Yrotation
          JOINT RightArm
          {
            OFFSET -13.1216 3.0287 -4.9007
            CHANNELS 3 Zrotation Xrotation Yrotation
            JOINT RightForeArm
            {
              OFFSET -27.4081 -0.0973053 -0.2375
              CHANNELS 3 Zrotation Xrotation Yrotation
              JOINT RightHand
              {
                OFFSET -22.8641 0.0664063 -0.1369
                CHANNELS 3 Zrotation Xrotation Yrotation
                JOINT RightHandIndex1
                {
                  OFFSET -8.8614 0.774994 2.4612
                  CHANNELS 3 Zrotation Xrotation Yrotation
                  JOINT RightHandIndex2
                  {
                    OFFSET -3.3146 -0.808304 0.5841
                    CHANNELS 3 Zrotation Xrotation Yrotation
                    JOINT RightHandIndex3
                    {
                      OFFSET -2.2628 -0.552002 0.3989
                      CHANNELS 3 Zrotation Xrotation Yrotation
                      End Site
                      {
                        OFFSET -1.6102 -0.4807 0.2612
                      }
                    }
                  }
                }
                JOINT RightHandMiddle1
                {
                  OFFSET -8.9937 0.894989 0.2143
                  CHANNELS 3 Zrotation Xrotation Yrotation
                  JOINT RightHandMiddle2
                  {
                    OFFSET -4.0984 0.0113983 -0.0242
                    CHANNELS 3 Zrotation Xrotation Yrotation
                    JOINT RightHandMiddle3
                    {
                      OFFSET -2.2716 0.00691223 -0.0138001
                      CHANNELS 3 Zrotation Xrotation Yrotation
                      End Site
                      {
                        OFFSET -2.0404 -0.1441 0.0027
                      }
                    }
                  }
                }
                JOINT RightHandRing1
                {
                  OFFSET -8.5234 0.597198 -2.0164
                  CHANNELS 3 Zrotation Xrotation Yrotation
                  JOINT RightHandRing2
                  {
                    OFFSET -3.7188 -0.188309 -0.2328
                    CHANNELS 3 Zrotation Xrotation Yrotation
                    JOINT RightHandRing3
                    {
                      OFFSET -2.1191 -0.106598 -0.1332
                      CHANNELS 3 Zrotation Xrotation Yrotation
                      End Site
                      {
                        OFFSET -1.8737 -0.2304 -0.0886
                      }
                    }
                  }
                }
                JOINT RightHandPinky1
                {
                  OFFSET -7.9094 -0.601105 -3.4825
                  CHANNELS 3 Zrotation Xrotation Yrotation
                  JOINT RightHandPinky2
                  {
                    OFFSET -2.2874 -0.477005 -0.6314
                    CHANNELS 3 Zrotation Xrotation Yrotation
                    JOINT RightHandPinky3
                    {
                      OFFSET -1.6774 -0.349396 -0.4633
                      CHANNELS 3 Zrotation Xrotation Yrotation
                      End Site
                      {
                        OFFSET -1.4888 -0.4091 -0.3416
                      }
                    }
                  }
                }
                JOINT RightHandThumb1
                {
                  OFFSET -1.833 -1.38751 1.3896
                  CHANNELS 3 Zrotation Xrotation Yrotation
                  JOINT RightHandThumb2
                  {
                    OFFSET -3.41299 -1.12099 2.5732
                    CHANNELS 3 Zrotation Xrotation Yrotation
                    JOINT RightHandThumb3
                    {
                      OFFSET -2.24741 -0.804108 1.6192
                      CHANNELS 3 Zrotation Xrotation Yrotation
                      End Site
                      {
                        OFFSET -1.6527 -0.5689 1.1317
                      }
                    }
                  }
                }
              }
            }
          }
        }
      }
    }
  }
  JOINT RightUpLeg
  {
    OFFSET -9.1966 3.8861 -0.7581
    CHANNELS 3 Zrotation Xrotation Yrotation
    JOINT RightLeg
    {
      OFFSET -0.7359 -41.0265 0
      CHANNELS 3 Zrotation Xrotation Yrotation
      JOINT RightFoot
      {
        OFFSET 0 -40.2855 0
        CHANNELS 3 Zrotation Xrotation Yrotation
        JOINT RightToeBase
        {
          OFFSET 0 -5.6122 11.7359
          CHANNELS 3 Zrotation Xrotation Yrotation
          End Site
          {
            OFFSET 0 0 7.8731
          }
        }
      }
    }
  }
  JOINT LeftUpLeg
  {
    OFFSET 9.1965 3.8864 -0.7581
    CHANNELS 3 Zrotation Xrotation Yrotation
    JOINT LeftLeg
    {
      OFFSET 0.7359 -41.0268 0
      CHANNELS 3 Zrotation Xrotation Yrotation
      JOINT LeftFoot
      {
        OFFSET 0 -40.2855 0
        CHANNELS 3 Zrotation Xrotation Yrotation
        JOINT LeftToeBase
        {
          OFFSET 0 -5.6122 11.7359
          CHANNELS 3 Zrotation Xrotation Yrotation
          End Site
          {
            OFFSET 0 0 7.8731
          }
        }
      }
    }
  }
}
MOTION
Frames:	4
Frame Time:	0.0333333
5.84602e-005 68.8428 3.50346 0 0 -0 0 0 -0 0 0 -0 0 0 -0 0 0 -0 0.00553454 0 -0 0 0 -0 0 0 -0 0 0 -0 0 0 -0 0 0 -0 0 0 -0 0 0 -0 0 0 -0 -0.0146107 -8.87603e-005 -2.63497e-007 2.99804e-018 -2.42657e-020 -1.42182e-022 0 0 -0 -0.0187562 -0.001176 5.858e-005 5.06224e-018 3.88251e-019 1.21329e-020 0 0 -0 -0.012269 -0.00324817 0.000675346 -1.74678e-018 3.88251e-019 -0 0 0 -0 0 0 -0 0 0 -0 0 0 -0 0 0 -0 0 0 -0 0 0 -0 0 0 -0 0 0 -0 0 0 -0 0 0 -0 0.0149955 -9.10982e-005 2.64101e-007 -9.69331e-018 1.21329e-020 -4.7394e-023 0 0 -0 0.0189956 -0.00119102 -5.96516e-005 -5.41541e-019 0 2.42657e-020 0 0 -0 0.0122698 -0.00324857 -0.000673756 -2.00796e-019 0 -1.94126e-019 0 0 -0 0 0 -0 0 0 -0 3.39842 1.33031 -0.0637918 -5.65207e-008 0.834868 -0.000436188 -3.39935 -2.16518 -0.0642563 -8.89002e-024 -1.18485e-023 -1.48106e-024 -3.39844 1.35642 0.0640283 -3.18788e-007 0.782166 -0.000588827 3.39931 -2.13858 0.0634662 1.1399e-023 0 -0 
0.0449952 -7.50507 -56.5157 -0 -63.0022 -0 0 2.79923 -0 0 5.59845 -0 0 5.59842 -0 0 30.9992 -0 0.00636394 0.274517 -0.173106 0 5.51112e-005 -0 -76.0183 -1.13949e-006 40.9982 -1.87929e-005 -1.5523e-006 -81.0033 -13.0004 6.71123e-006 4.18101e-006 -3.66847e-006 -1.00634e-008 3.13867e-006 7.95139e-016 -8.34896e-015 -7.95139e-016 -3.66847e-006 -1.00631e-008 3.13867e-006 -3.66847e-006 -1.00634e-008 3.13867e-006 -0.0146232 -9.00383e-005 1.09329e-006 -3.66845e-006 -1.04637e-008 3.13868e-006 -3.66847e-006 -1.00634e-008 3.13867e-006 -0.0187589 -0.00117713 6.11035e-005 -3.66841e-006 -1.05739e-008 3.13871e-006 -3.66847e-006 -1.00634e-008 3.13867e-006 -0.0122446 -0.00324493 0.000671263 -3.66836e-006 -1.03736e-008 3.13878e-006 -3.66847e-006 -1.00634e-008 3.13867e-006 7.95139e-016 -8.34896e-015 -7.95139e-016 -3.66847e-006 -1.00631e-008 3.13867e-006 5.96517e-007 5.47015e-005 10.9996 71.794 27.6181 25.0109 4.4468 2.49349 17.9443 42.9964 16.9965 -0.000340691 3.18055e-015 0 4.77083e-015 -3.18055e-015 -4.77083e-015 -1.59028e-015 3.18055e-015 -6.36111e-015 -1.59028e-015 3.18055e-015 0 4.77083e-015 0.0150256 -8.84954e-005 -1.88227e-006 4.41391e-031 -7.95139e-015 3.18055e-015 3.18055e-015 0 4.77083e-015 0.0189875 -0.00119044 -4.96383e-005 -3.18055e-015 0 -4.77083e-015 3.18055e-015 0 4.77083e-015 0.01229 -0.00325183 -0.000678956 3.18055e-015 3.18055e-015 1.59028e-015 3.18055e-015 0 4.77083e-015 -3.18055e-015 -4.77083e-015 -1.59028e-015 3.18055e-015 -6.36111e-015 -1.59028e-015 -63.6492 -35.909 -86.2184 0.0178724 74.8115 -1.9054 -3.05785 16.9289 -0.803595 1.91538e-006 7.10282e-006 -1.39488e-006 56.4211 -41.6839 78.8421 -0.0176745 74.7774 1.79793 2.135 10.9978 1.11044 4.03504e-006 -2.08204e-006 1.63047e-006 
0.0450079 -7.50535 -56.5157 -0 -63.0022 -0 -3.10414e-015 2.79923 5.56591e-015 3.35091e-022 5.59846 -2.9641e-022 -4.7012e-023 5.59845 -6.8084e-023 3.08657e-021 30.9991 -3.18636e-021 0.00322397 -0.779376 -0.169865 1.26402e-023 -1.52629e-005 1.0211e-023 -76.0183 1.92279e-006 40.9982 2.23105e-006 -4.26213e-006 -81.0033 -13.0004 -1.62812e-007 -2.02085e-006 3.97569e-016 7.11898e-015 3.97569e-016 1.0064e-008 -3.66847e-006 -1.29308e-007 -3.97569e-016 -1.34055e-014 -3.97569e-016 3.97569e-016 7.11898e-015 3.97569e-016 -0.0146059 -9.39388e-005 -1.1166e-006 -3.97569e-016 5.54112e-015 7.95139e-016 3.97569e-016 7.11898e-015 3.97569e-016 -0.0187485 -0.00118405 5.8353e-005 3.97569e-016 1.61513e-016 3.97569e-016 3.97569e-016 7.11898e-015 3.97569e-016 -0.0122498 -0.00324051 0.000675927 -7.83641e-032 -1.12935e-014 -3.97569e-016 3.97569e-016 7.11898e-015 3.97569e-016 1.0064e-008 -3.66847e-006 -1.29308e-007 -3.97569e-016 -1.34055e-014 -3.97569e-016 3.51649e-007 -6.42983e-006 10.9996 71.794 27.6181 25.0109 4.42504 2.53206 18.443 42.8064 17.1376 -0.07858 -3.18055e-015 3.18055e-015 -3.18055e-015 -3.18055e-015 0 -7.95139e-015 -3.18055e-015 0 -4.77083e-015 -3.18055e-015 3.18055e-015 -3.18055e-015 0.0150272 -9.22936e-005 -1.62621e-006 6.36111e-015 1.27222e-014 3.18055e-015 -3.18055e-015 3.18055e-015 -3.18055e-015 0.0189843 -0.00119017 -5.74072e-005 1.05934e-030 -6.36111e-015 9.54166e-015 -3.18055e-015 3.18055e-015 -3.18055e-015 0.012319 -0.00326103 -0.000681864 -6.36111e-015 3.18055e-015 1.59028e-015 -3.18055e-015 3.18055e-015 -3.18055e-015 -3.18055e-015 0 -7.95139e-015 -3.18055e-015 0 -4.77083e-015 -63.6429 -35.9274 -86.2278 0.0171193 74.7886 -2.48147 -3.0333 16.9144 -0.811346 4.77083e-015 3.18055e-015 6.36111e-015 56.4104 -41.6996 78.847 -0.0170224 74.7542 2.37357 2.11075 10.9821 1.11664 6.36111e-015 -3.18055e-015 7.95139e-015 
0.0450225 -7.50562 -56.5157 -0 -63.0022 -0 0 2.79923 -0 0 5.59846 -0 0 5.59846 -0 0 30.9997 -0 0.000190982 -1.83761 -0.166638 -0 -1.52629e-005 -0 -76.0183 9.76404e-006 40.9982 -3.92262e-006 1.19899e-006 -81.0033 -13.0004 5.69799e-007 2.80584e-006 -9.14409e-015 1.6847e-014 8.34896e-015 -9.93923e-015 1.43373e-014 8.74653e-015 -9.93923e-015 1.82261e-014 7.95139e-015 -9.14409e-015 1.6847e-014 8.34896e-015 -0.0145768 -8.89095e-005 -3.73852e-007 -6.37947e-032 -9.19379e-015 -3.97569e-016 -9.14409e-015 1.6847e-014 8.34896e-015 -0.018793 -0.00117968 5.84402e-005 1.62073e-032 -2.33572e-015 3.97569e-016 -9.14409e-015 1.6847e-014 8.34896e-015 -0.012278 -0.00324959 0.000680581 -3.97569e-016 -2.62147e-015 -0 -9.14409e-015 1.6847e-014 8.34896e-015 -9.93923e-015 1.43373e-014 8.74653e-015 -9.93923e-015 1.82261e-014 7.95139e-015 5.38177e-008 -3.06184e-006 10.9996 71.794 27.6181 25.0109 4.40297 2.57042 18.9418 42.6164 17.279 -0.156378 3.18055e-015 0 6.36111e-015 3.18055e-015 3.18055e-015 1.11319e-014 9.54166e-015 0 1.27222e-014 3.18055e-015 0 6.36111e-015 0.0149698 -8.96632e-005 -2.07348e-006 -1.27222e-014 0 4.77083e-015 3.18055e-015 0 6.36111e-015 0.0190261 -0.001191 -5.75484e-005 -3.18055e-015 -3.18055e-015 -0 3.18055e-015 0 6.36111e-015 0.0122613 -0.0032492 -0.000680378 -3.18055e-015 6.36111e-015 1.11319e-014 3.18055e-015 0 6.36111e-015 3.18055e-015 3.18055e-015 1.11319e-014 9.54166e-015 0 1.27222e-014 -63.6366 -35.9457 -86.2372 0.0162365 74.7653 -3.05756 -3.0087 16.9005 -0.819055 -3.56288e-006 4.18646e-006 4.52046e-007 56.3998 -41.7153 78.8519 -0.016431 74.7307 2.94942 2.08647 10.967 1.12281 6.36111e-015 -3.18055e-015 1.59028e-015 
